# Blender v2.75 (sub 0) OBJ File: 'momoHouse.blend'
# www.blender.org
mtllib momoHouse.mtl
o Plane.006
v 4.416621 -0.119976 -1.170286
v 4.417584 0.803216 -1.162220
v 4.409142 -0.116051 -1.618599
v 4.410105 0.807141 -1.610532
vn -0.999900 0.000900 0.016700
usemtl None
s off
f 1//1 2//1 4//1 3//1
o Plane.005
v 4.399130 -0.022990 1.691638
v 4.400093 0.900202 1.699704
v 4.391651 -0.019065 1.243325
v 4.392613 0.904127 1.251392
vn -0.999900 0.000900 0.016700
usemtl None
s off
f 5//2 6//2 8//2 7//2
o Plane.004
v -4.338120 0.973160 1.564632
v -4.370696 0.132545 1.572923
v -4.393712 0.944190 -1.591381
v -4.426288 0.103575 -1.583090
vn 0.999100 -0.038900 -0.017200
usemtl None
s off
f 9//3 10//3 12//3 11//3
o Plane.003
v -4.413378 0.871962 -1.645841
v 4.386784 0.829404 -1.623384
v -4.417234 0.080351 -1.634933
v 4.382928 0.037793 -1.612475
vn 0.002500 -0.013800 -0.999900
usemtl None
s off
f 13//4 14//4 16//4 15//4
o Plane.002
v -4.404555 0.958134 1.628697
v 4.395401 0.915576 1.693142
v -4.408463 0.166523 1.639587
v 4.391492 0.123965 1.704032
vn 0.007300 -0.013800 -0.999900
usemtl None
s off
f 17//5 18//5 20//5 19//5
o Cylinder.003
v 4.365097 0.019780 -1.613426
v 4.365097 2.747902 -1.613426
v 4.372755 0.019780 -1.612715
v 4.372755 2.747902 -1.612715
v 4.380119 0.019780 -1.610609
v 4.380119 2.747902 -1.610609
v 4.386905 0.019780 -1.607189
v 4.386905 2.747902 -1.607189
v 4.392854 0.019780 -1.602586
v 4.392854 2.747902 -1.602586
v 4.397735 0.019780 -1.596978
v 4.397735 2.747902 -1.596978
v 4.401363 0.019780 -1.590580
v 4.401363 2.747902 -1.590580
v 4.403596 0.019780 -1.583637
v 4.403596 2.747902 -1.583637
v 4.404351 0.019780 -1.576417
v 4.404351 2.747902 -1.576417
v 4.403596 0.019780 -1.569196
v 4.403596 2.747902 -1.569196
v 4.401363 0.019780 -1.562254
v 4.401363 2.747902 -1.562254
v 4.397735 0.019780 -1.555855
v 4.397735 2.747902 -1.555855
v 4.392854 0.019780 -1.550247
v 4.392854 2.747902 -1.550247
v 4.386905 0.019780 -1.545645
v 4.386905 2.747902 -1.545645
v 4.380119 0.019780 -1.542225
v 4.380119 2.747902 -1.542225
v 4.372755 0.019780 -1.540118
v 4.372755 2.747902 -1.540118
v 4.365097 0.019780 -1.539407
v 4.365097 2.747902 -1.539407
v 4.357439 0.019780 -1.540118
v 4.357439 2.747902 -1.540118
v 4.350075 0.019780 -1.542225
v 4.350075 2.747902 -1.542225
v 4.343289 0.019780 -1.545645
v 4.343289 2.747902 -1.545645
v 4.337340 0.019780 -1.550247
v 4.337340 2.747902 -1.550247
v 4.332459 0.019780 -1.555855
v 4.332459 2.747902 -1.555855
v 4.328831 0.019780 -1.562254
v 4.328831 2.747902 -1.562254
v 4.326598 0.019780 -1.569196
v 4.326598 2.747902 -1.569196
v 4.325843 0.019780 -1.576417
v 4.325843 2.747902 -1.576417
v 4.326598 0.019780 -1.583637
v 4.326598 2.747902 -1.583637
v 4.328831 0.019780 -1.590580
v 4.328831 2.747902 -1.590580
v 4.332459 0.019780 -1.596978
v 4.332459 2.747902 -1.596978
v 4.337340 0.019780 -1.602586
v 4.337340 2.747902 -1.602586
v 4.343289 0.019780 -1.607189
v 4.343289 2.747902 -1.607189
v 4.350075 0.019780 -1.610609
v 4.350075 2.747902 -1.610609
v 4.357439 0.019780 -1.612715
v 4.357439 2.747902 -1.612715
vn 0.092500 0.000000 -0.995700
vn 0.275000 -0.000000 -0.961500
vn 0.450000 0.000000 -0.893000
vn 0.611900 0.000000 -0.790900
vn 0.754300 -0.000000 -0.656500
vn 0.869900 0.000000 -0.493200
vn 0.952000 0.000000 -0.306200
vn 0.994600 0.000000 -0.103900
vn 0.994600 0.000000 0.103900
vn 0.952000 0.000000 0.306200
vn 0.869900 0.000000 0.493200
vn 0.754300 -0.000000 0.656500
vn 0.611900 0.000000 0.790900
vn 0.450000 0.000000 0.893000
vn 0.275000 -0.000000 0.961500
vn 0.092500 0.000000 0.995700
vn -0.092500 0.000000 0.995700
vn -0.275000 -0.000000 0.961500
vn -0.450000 0.000000 0.893000
vn -0.611900 0.000000 0.790900
vn -0.754300 0.000000 0.656500
vn -0.869900 -0.000000 0.493200
vn -0.951900 -0.000000 0.306300
vn -0.994600 -0.000000 0.103900
vn -0.994600 -0.000000 -0.103900
vn -0.952000 -0.000000 -0.306200
vn -0.869900 -0.000000 -0.493200
vn -0.754300 -0.000000 -0.656500
vn -0.611900 0.000000 -0.790900
vn -0.450000 -0.000000 -0.893000
vn 0.000000 1.000000 0.000000
vn -0.092500 0.000000 -0.995700
vn -0.275000 -0.000000 -0.961500
vn 0.000000 -1.000000 0.000000
usemtl None
s off
f 21//6 22//6 24//6 23//6
f 23//7 24//7 26//7 25//7
f 25//8 26//8 28//8 27//8
f 27//9 28//9 30//9 29//9
f 29//10 30//10 32//10 31//10
f 31//11 32//11 34//11 33//11
f 33//12 34//12 36//12 35//12
f 35//13 36//13 38//13 37//13
f 37//14 38//14 40//14 39//14
f 39//15 40//15 42//15 41//15
f 41//16 42//16 44//16 43//16
f 43//17 44//17 46//17 45//17
f 45//18 46//18 48//18 47//18
f 47//19 48//19 50//19 49//19
f 49//20 50//20 52//20 51//20
f 51//21 52//21 54//21 53//21
f 53//22 54//22 56//22 55//22
f 55//23 56//23 58//23 57//23
f 57//24 58//24 60//24 59//24
f 59//25 60//25 62//25 61//25
f 61//26 62//26 64//26 63//26
f 63//27 64//27 66//27 65//27
f 65//28 66//28 68//28 67//28
f 67//29 68//29 70//29 69//29
f 69//30 70//30 72//30 71//30
f 71//31 72//31 74//31 73//31
f 73//32 74//32 76//32 75//32
f 75//33 76//33 78//33 77//33
f 77//34 78//34 80//34 79//34
f 79//35 80//35 82//35 81//35
f 24//36 22//36 84//36 82//36 80//36 78//36 76//36 74//36 72//36 70//36 68//36 66//36 64//36 62//36 60//36 58//36 56//36 54//36 52//36 50//36 48//36 46//36 44//36 42//36 40//36 38//36 36//36 34//36 32//36 30//36 28//36 26//36
f 83//37 84//37 22//37 21//37
f 81//38 82//38 84//38 83//38
f 21//39 23//39 25//39 27//39 29//39 31//39 33//39 35//39 37//39 39//39 41//39 43//39 45//39 47//39 49//39 51//39 53//39 55//39 57//39 59//39 61//39 63//39 65//39 67//39 69//39 71//39 73//39 75//39 77//39 79//39 81//39 83//39
o Cylinder.002
v 4.246892 -0.077327 1.581684
v 4.246892 2.650795 1.581684
v 4.254550 -0.077327 1.582395
v 4.254550 2.650795 1.582395
v 4.261914 -0.077327 1.584501
v 4.261914 2.650795 1.584501
v 4.268700 -0.077327 1.587921
v 4.268700 2.650795 1.587921
v 4.274649 -0.077327 1.592524
v 4.274649 2.650795 1.592524
v 4.279530 -0.077327 1.598132
v 4.279530 2.650795 1.598132
v 4.283158 -0.077327 1.604530
v 4.283158 2.650795 1.604530
v 4.285391 -0.077327 1.611473
v 4.285391 2.650795 1.611473
v 4.286146 -0.077327 1.618693
v 4.286146 2.650795 1.618693
v 4.285391 -0.077327 1.625914
v 4.285391 2.650795 1.625914
v 4.283158 -0.077327 1.632856
v 4.283158 2.650795 1.632856
v 4.279530 -0.077327 1.639255
v 4.279530 2.650795 1.639255
v 4.274649 -0.077327 1.644863
v 4.274649 2.650795 1.644863
v 4.268700 -0.077327 1.649465
v 4.268700 2.650795 1.649465
v 4.261914 -0.077327 1.652885
v 4.261914 2.650795 1.652885
v 4.254550 -0.077327 1.654992
v 4.254550 2.650795 1.654992
v 4.246892 -0.077327 1.655703
v 4.246892 2.650795 1.655703
v 4.239234 -0.077327 1.654992
v 4.239234 2.650795 1.654992
v 4.231870 -0.077327 1.652885
v 4.231870 2.650795 1.652885
v 4.225084 -0.077327 1.649465
v 4.225084 2.650795 1.649465
v 4.219135 -0.077327 1.644863
v 4.219135 2.650795 1.644863
v 4.214254 -0.077327 1.639255
v 4.214254 2.650795 1.639255
v 4.210626 -0.077327 1.632856
v 4.210626 2.650795 1.632856
v 4.208393 -0.077327 1.625914
v 4.208393 2.650795 1.625914
v 4.207638 -0.077327 1.618693
v 4.207638 2.650795 1.618693
v 4.208393 -0.077327 1.611473
v 4.208393 2.650795 1.611473
v 4.210626 -0.077327 1.604530
v 4.210626 2.650795 1.604530
v 4.214254 -0.077327 1.598132
v 4.214254 2.650795 1.598132
v 4.219135 -0.077327 1.592524
v 4.219135 2.650795 1.592524
v 4.225084 -0.077327 1.587921
v 4.225084 2.650795 1.587921
v 4.231870 -0.077327 1.584501
v 4.231870 2.650795 1.584501
v 4.239234 -0.077327 1.582395
v 4.239234 2.650795 1.582395
vn 0.092500 -0.000000 -0.995700
vn 0.275000 -0.000000 -0.961500
vn 0.450000 -0.000000 -0.893000
vn 0.611900 0.000000 -0.790900
vn 0.754300 0.000000 -0.656500
vn 0.869900 0.000000 -0.493200
vn 0.952000 0.000000 -0.306200
vn 0.994600 -0.000000 -0.103900
vn 0.994600 -0.000000 0.103900
vn 0.952000 0.000000 0.306200
vn 0.869900 0.000000 0.493200
vn 0.754300 0.000000 0.656500
vn 0.611900 0.000000 0.790900
vn 0.450000 -0.000000 0.893000
vn 0.275000 -0.000000 0.961400
vn 0.092500 -0.000000 0.995700
vn -0.092500 0.000000 0.995700
vn -0.275000 -0.000000 0.961400
vn -0.450000 0.000000 0.893000
vn -0.611900 0.000000 0.790900
vn -0.754300 0.000000 0.656500
vn -0.869900 0.000000 0.493200
vn -0.952000 0.000000 0.306300
vn -0.994600 -0.000000 0.103900
vn -0.994600 -0.000000 -0.103900
vn -0.952000 -0.000000 -0.306200
vn -0.869900 0.000000 -0.493200
vn -0.754300 0.000000 -0.656500
vn -0.611900 0.000000 -0.790900
vn -0.450000 -0.000000 -0.893000
vn 0.000000 1.000000 -0.000000
vn -0.092500 0.000000 -0.995700
vn -0.275000 -0.000000 -0.961500
vn 0.000000 -1.000000 0.000000
usemtl None
s off
f 85//40 86//40 88//40 87//40
f 87//41 88//41 90//41 89//41
f 89//42 90//42 92//42 91//42
f 91//43 92//43 94//43 93//43
f 93//44 94//44 96//44 95//44
f 95//45 96//45 98//45 97//45
f 97//46 98//46 100//46 99//46
f 99//47 100//47 102//47 101//47
f 101//48 102//48 104//48 103//48
f 103//49 104//49 106//49 105//49
f 105//50 106//50 108//50 107//50
f 107//51 108//51 110//51 109//51
f 109//52 110//52 112//52 111//52
f 111//53 112//53 114//53 113//53
f 113//54 114//54 116//54 115//54
f 115//55 116//55 118//55 117//55
f 117//56 118//56 120//56 119//56
f 119//57 120//57 122//57 121//57
f 121//58 122//58 124//58 123//58
f 123//59 124//59 126//59 125//59
f 125//60 126//60 128//60 127//60
f 127//61 128//61 130//61 129//61
f 129//62 130//62 132//62 131//62
f 131//63 132//63 134//63 133//63
f 133//64 134//64 136//64 135//64
f 135//65 136//65 138//65 137//65
f 137//66 138//66 140//66 139//66
f 139//67 140//67 142//67 141//67
f 141//68 142//68 144//68 143//68
f 143//69 144//69 146//69 145//69
f 88//70 86//70 148//70 146//70 144//70 142//70 140//70 138//70 136//70 134//70 132//70 130//70 128//70 126//70 124//70 122//70 120//70 118//70 116//70 114//70 112//70 110//70 108//70 106//70 104//70 102//70 100//70 98//70 96//70 94//70 92//70 90//70
f 147//71 148//71 86//71 85//71
f 145//72 146//72 148//72 147//72
f 85//73 87//73 89//73 91//73 93//73 95//73 97//73 99//73 101//73 103//73 105//73 107//73 109//73 111//73 113//73 115//73 117//73 119//73 121//73 123//73 125//73 127//73 129//73 131//73 133//73 135//73 137//73 139//73 141//73 143//73 145//73 147//73
o Cylinder.001
v -4.347564 -0.043956 1.575626
v -4.347564 2.684166 1.575626
v -4.339906 -0.043956 1.576337
v -4.339906 2.684166 1.576337
v -4.332542 -0.043956 1.578443
v -4.332542 2.684166 1.578443
v -4.325756 -0.043956 1.581863
v -4.325756 2.684166 1.581863
v -4.319808 -0.043956 1.586465
v -4.319808 2.684166 1.586465
v -4.314926 -0.043956 1.592074
v -4.314926 2.684166 1.592074
v -4.311298 -0.043956 1.598472
v -4.311298 2.684166 1.598472
v -4.309065 -0.043956 1.605415
v -4.309065 2.684166 1.605415
v -4.308311 -0.043956 1.612635
v -4.308311 2.684166 1.612635
v -4.309065 -0.043956 1.619855
v -4.309065 2.684166 1.619855
v -4.311298 -0.043956 1.626798
v -4.311298 2.684166 1.626798
v -4.314926 -0.043956 1.633196
v -4.314926 2.684166 1.633196
v -4.319808 -0.043956 1.638805
v -4.319808 2.684166 1.638805
v -4.325756 -0.043956 1.643407
v -4.325756 2.684166 1.643407
v -4.332542 -0.043956 1.646827
v -4.332542 2.684166 1.646827
v -4.339906 -0.043956 1.648933
v -4.339906 2.684166 1.648933
v -4.347564 -0.043956 1.649644
v -4.347564 2.684166 1.649644
v -4.355222 -0.043956 1.648933
v -4.355222 2.684166 1.648933
v -4.362586 -0.043956 1.646827
v -4.362586 2.684166 1.646827
v -4.369372 -0.043956 1.643407
v -4.369372 2.684166 1.643407
v -4.375321 -0.043956 1.638805
v -4.375321 2.684166 1.638805
v -4.380202 -0.043956 1.633196
v -4.380202 2.684166 1.633196
v -4.383830 -0.043956 1.626798
v -4.383830 2.684166 1.626798
v -4.386064 -0.043956 1.619855
v -4.386064 2.684166 1.619855
v -4.386818 -0.043956 1.612635
v -4.386818 2.684166 1.612635
v -4.386064 -0.043956 1.605415
v -4.386064 2.684166 1.605415
v -4.383830 -0.043956 1.598472
v -4.383830 2.684166 1.598472
v -4.380202 -0.043956 1.592074
v -4.380202 2.684166 1.592074
v -4.375321 -0.043956 1.586465
v -4.375321 2.684166 1.586465
v -4.369372 -0.043956 1.581863
v -4.369372 2.684166 1.581863
v -4.362586 -0.043956 1.578443
v -4.362586 2.684166 1.578443
v -4.355222 -0.043956 1.576337
v -4.355222 2.684166 1.576337
vn 0.092500 -0.000000 -0.995700
vn 0.275000 -0.000000 -0.961400
vn 0.450000 0.000000 -0.893000
vn 0.611900 0.000000 -0.790900
vn 0.754300 -0.000000 -0.656500
vn 0.869900 0.000000 -0.493200
vn 0.952000 -0.000000 -0.306200
vn 0.994600 0.000000 -0.103900
vn 0.994600 0.000000 0.103900
vn 0.952000 -0.000000 0.306200
vn 0.869900 0.000000 0.493200
vn 0.754300 -0.000000 0.656500
vn 0.611900 0.000000 0.790900
vn 0.450000 0.000000 0.893000
vn 0.275000 -0.000000 0.961500
vn 0.092500 -0.000000 0.995700
vn -0.092500 0.000000 0.995700
vn -0.275000 -0.000000 0.961500
vn -0.450000 0.000000 0.893000
vn -0.611900 0.000000 0.790900
vn -0.754300 -0.000000 0.656500
vn -0.869900 0.000000 0.493200
vn -0.952000 0.000000 0.306200
vn -0.994600 0.000000 0.103900
vn -0.994600 0.000000 -0.103900
vn -0.952000 -0.000000 -0.306200
vn -0.869900 0.000000 -0.493200
vn -0.754300 0.000000 -0.656500
vn -0.611900 0.000000 -0.790900
vn -0.450000 0.000000 -0.893000
vn 0.000000 1.000000 0.000000
vn -0.092500 0.000000 -0.995700
vn -0.275000 -0.000000 -0.961500
vn 0.000000 -1.000000 0.000000
usemtl None
s off
f 149//74 150//74 152//74 151//74
f 151//75 152//75 154//75 153//75
f 153//76 154//76 156//76 155//76
f 155//77 156//77 158//77 157//77
f 157//78 158//78 160//78 159//78
f 159//79 160//79 162//79 161//79
f 161//80 162//80 164//80 163//80
f 163//81 164//81 166//81 165//81
f 165//82 166//82 168//82 167//82
f 167//83 168//83 170//83 169//83
f 169//84 170//84 172//84 171//84
f 171//85 172//85 174//85 173//85
f 173//86 174//86 176//86 175//86
f 175//87 176//87 178//87 177//87
f 177//88 178//88 180//88 179//88
f 179//89 180//89 182//89 181//89
f 181//90 182//90 184//90 183//90
f 183//91 184//91 186//91 185//91
f 185//92 186//92 188//92 187//92
f 187//93 188//93 190//93 189//93
f 189//94 190//94 192//94 191//94
f 191//95 192//95 194//95 193//95
f 193//96 194//96 196//96 195//96
f 195//97 196//97 198//97 197//97
f 197//98 198//98 200//98 199//98
f 199//99 200//99 202//99 201//99
f 201//100 202//100 204//100 203//100
f 203//101 204//101 206//101 205//101
f 205//102 206//102 208//102 207//102
f 207//103 208//103 210//103 209//103
f 152//104 150//104 212//104 210//104 208//104 206//104 204//104 202//104 200//104 198//104 196//104 194//104 192//104 190//104 188//104 186//104 184//104 182//104 180//104 178//104 176//104 174//104 172//104 170//104 168//104 166//104 164//104 162//104 160//104 158//104 156//104 154//104
f 211//105 212//105 150//105 149//105
f 209//106 210//106 212//106 211//106
f 149//107 151//107 153//107 155//107 157//107 159//107 161//107 163//107 165//107 167//107 169//107 171//107 173//107 175//107 177//107 179//107 181//107 183//107 185//107 187//107 189//107 191//107 193//107 195//107 197//107 199//107 201//107 203//107 205//107 207//107 209//107 211//107
o Cylinder
v -4.412361 0.048590 -1.630350
v -4.412361 2.776712 -1.630350
v -4.404703 0.048590 -1.629639
v -4.404703 2.776712 -1.629639
v -4.397339 0.048590 -1.627533
v -4.397339 2.776712 -1.627533
v -4.390553 0.048590 -1.624113
v -4.390553 2.776712 -1.624113
v -4.384604 0.048590 -1.619510
v -4.384604 2.776712 -1.619510
v -4.379723 0.048590 -1.613902
v -4.379723 2.776712 -1.613902
v -4.376095 0.048590 -1.607503
v -4.376095 2.776712 -1.607503
v -4.373862 0.048590 -1.600561
v -4.373862 2.776712 -1.600561
v -4.373107 0.048590 -1.593341
v -4.373107 2.776712 -1.593341
v -4.373862 0.048590 -1.586120
v -4.373862 2.776712 -1.586120
v -4.376095 0.048590 -1.579178
v -4.376095 2.776712 -1.579178
v -4.379723 0.048590 -1.572779
v -4.379723 2.776712 -1.572779
v -4.384604 0.048590 -1.567171
v -4.384604 2.776712 -1.567171
v -4.390553 0.048590 -1.562568
v -4.390553 2.776712 -1.562568
v -4.397339 0.048590 -1.559148
v -4.397339 2.776712 -1.559148
v -4.404703 0.048590 -1.557042
v -4.404703 2.776712 -1.557042
v -4.412361 0.048590 -1.556331
v -4.412361 2.776712 -1.556331
v -4.420019 0.048590 -1.557042
v -4.420019 2.776712 -1.557042
v -4.427383 0.048590 -1.559148
v -4.427383 2.776712 -1.559148
v -4.434169 0.048590 -1.562568
v -4.434169 2.776712 -1.562568
v -4.440118 0.048590 -1.567171
v -4.440118 2.776712 -1.567171
v -4.444999 0.048590 -1.572779
v -4.444999 2.776712 -1.572779
v -4.448627 0.048590 -1.579178
v -4.448627 2.776712 -1.579178
v -4.450861 0.048590 -1.586120
v -4.450861 2.776712 -1.586120
v -4.451615 0.048590 -1.593341
v -4.451615 2.776712 -1.593341
v -4.450861 0.048590 -1.600561
v -4.450861 2.776712 -1.600561
v -4.448627 0.048590 -1.607503
v -4.448627 2.776712 -1.607503
v -4.444999 0.048590 -1.613902
v -4.444999 2.776712 -1.613902
v -4.440118 0.048590 -1.619510
v -4.440118 2.776712 -1.619510
v -4.434169 0.048590 -1.624113
v -4.434169 2.776712 -1.624113
v -4.427383 0.048590 -1.627533
v -4.427383 2.776712 -1.627533
v -4.420019 0.048590 -1.629639
v -4.420019 2.776712 -1.629639
vn 0.092500 0.000000 -0.995700
vn 0.275000 -0.000000 -0.961500
vn 0.450000 -0.000000 -0.893000
vn 0.611900 -0.000000 -0.790900
vn 0.754300 -0.000000 -0.656500
vn 0.869900 0.000000 -0.493200
vn 0.952000 0.000000 -0.306200
vn 0.994600 -0.000000 -0.103900
vn 0.994600 -0.000000 0.103900
vn 0.952000 0.000000 0.306200
vn 0.869900 0.000000 0.493200
vn 0.754300 -0.000000 0.656500
vn 0.611900 -0.000000 0.790900
vn 0.450000 -0.000000 0.893000
vn 0.275000 -0.000000 0.961500
vn 0.092500 0.000000 0.995700
vn -0.092500 -0.000000 0.995700
vn -0.275000 -0.000000 0.961500
vn -0.450000 0.000000 0.893000
vn -0.611900 -0.000000 0.790900
vn -0.754300 0.000000 0.656500
vn -0.869900 0.000000 0.493200
vn -0.952000 -0.000000 0.306300
vn -0.994600 0.000000 0.103900
vn -0.994600 0.000000 -0.103900
vn -0.952000 0.000000 -0.306200
vn -0.869900 0.000000 -0.493200
vn -0.754300 0.000000 -0.656500
vn -0.611900 -0.000000 -0.790900
vn -0.450000 0.000000 -0.893000
vn 0.000000 1.000000 0.000000
vn -0.092500 -0.000000 -0.995700
vn -0.275000 -0.000000 -0.961500
vn 0.000000 -1.000000 0.000000
usemtl None
s off
f 213//108 214//108 216//108 215//108
f 215//109 216//109 218//109 217//109
f 217//110 218//110 220//110 219//110
f 219//111 220//111 222//111 221//111
f 221//112 222//112 224//112 223//112
f 223//113 224//113 226//113 225//113
f 225//114 226//114 228//114 227//114
f 227//115 228//115 230//115 229//115
f 229//116 230//116 232//116 231//116
f 231//117 232//117 234//117 233//117
f 233//118 234//118 236//118 235//118
f 235//119 236//119 238//119 237//119
f 237//120 238//120 240//120 239//120
f 239//121 240//121 242//121 241//121
f 241//122 242//122 244//122 243//122
f 243//123 244//123 246//123 245//123
f 245//124 246//124 248//124 247//124
f 247//125 248//125 250//125 249//125
f 249//126 250//126 252//126 251//126
f 251//127 252//127 254//127 253//127
f 253//128 254//128 256//128 255//128
f 255//129 256//129 258//129 257//129
f 257//130 258//130 260//130 259//130
f 259//131 260//131 262//131 261//131
f 261//132 262//132 264//132 263//132
f 263//133 264//133 266//133 265//133
f 265//134 266//134 268//134 267//134
f 267//135 268//135 270//135 269//135
f 269//136 270//136 272//136 271//136
f 271//137 272//137 274//137 273//137
f 216//138 214//138 276//138 274//138 272//138 270//138 268//138 266//138 264//138 262//138 260//138 258//138 256//138 254//138 252//138 250//138 248//138 246//138 244//138 242//138 240//138 238//138 236//138 234//138 232//138 230//138 228//138 226//138 224//138 222//138 220//138 218//138
f 275//139 276//139 214//139 213//139
f 273//140 274//140 276//140 275//140
f 213//141 215//141 217//141 219//141 221//141 223//141 225//141 227//141 229//141 231//141 233//141 235//141 237//141 239//141 241//141 243//141 245//141 247//141 249//141 251//141 253//141 255//141 257//141 259//141 261//141 263//141 265//141 267//141 269//141 271//141 273//141 275//141
o Plane.001
v -5.037706 2.626647 1.814261
v 4.530104 2.626647 1.814261
v -5.037706 3.409210 -0.026281
v 4.530104 3.409210 -0.026281
vn -0.000000 0.920300 0.391300
usemtl None
s off
f 277//142 278//142 280//142 279//142
o Plane
v -4.942828 3.417108 -0.017448
v 4.624982 3.417108 -0.017448
v -4.942828 2.660134 -1.868661
v 4.624982 2.660134 -1.868661
vn 0.000000 0.925600 -0.378500
usemtl None
s off
f 281//143 282//143 284//143 283//143
o Cube
v 4.557551 -0.119027 -1.752088
v 4.557551 -0.119027 1.752088
v -4.557552 -0.119027 1.752088
v -4.557550 -0.119027 -1.752089
v 4.557554 0.119027 -1.752087
v 4.557549 0.119027 1.752089
v -4.557553 0.119027 1.752087
v -4.557551 0.119027 -1.752088
vn 0.000000 -1.000000 0.000000
vn 0.000000 1.000000 0.000000
vn 1.000000 0.000000 0.000000
vn -0.000000 -0.000000 1.000000
vn -1.000000 -0.000000 -0.000000
vn 0.000000 0.000000 -1.000000
usemtl Material
s off
f 285//144 286//144 287//144 288//144
f 289//145 292//145 291//145 290//145
f 285//146 289//146 290//146 286//146
f 286//147 290//147 291//147 287//147
f 287//148 291//148 292//148 288//148
f 289//149 285//149 288//149 292//149
