# Blender v2.75 (sub 0) OBJ File: 'balcony (1).blend'
# www.blender.org
mtllib holo.mtl
o Cylinder
v -0.041361 0.270524 -1.263611
v -0.041361 3.040910 -1.263611
v 0.228876 0.270524 -1.236995
v 0.228876 3.040910 -1.236995
v 0.488729 0.270524 -1.158169
v 0.488729 3.040910 -1.158169
v 0.728211 0.270524 -1.030164
v 0.728211 3.040910 -1.030164
v 0.938118 0.270524 -0.857897
v 0.938118 3.040910 -0.857897
v 1.110385 0.270524 -0.647990
v 1.110385 3.040910 -0.647990
v 1.238390 0.270524 -0.408508
v 1.238390 3.040910 -0.408508
v 1.317215 0.270524 -0.148655
v 1.317215 3.040910 -0.148655
v 1.343832 0.270524 0.121582
v 1.343832 3.040910 0.121582
v 1.317216 0.270524 0.391820
v 1.317216 3.040910 0.391820
v 1.238390 0.270524 0.651673
v 1.238390 3.040910 0.651673
v 1.110385 0.270524 0.891154
v 1.110385 3.040910 0.891154
v 0.938118 0.270524 1.101062
v 0.938118 3.040910 1.101062
v 0.728211 0.270524 1.273328
v 0.728211 3.040910 1.273328
v 0.488729 0.270524 1.401334
v 0.488729 3.040910 1.401334
v 0.228876 0.270524 1.480159
v 0.228876 3.040910 1.480159
v -0.041362 0.270524 1.506775
v -0.041362 3.040910 1.506775
v -0.311600 0.270524 1.480159
v -0.311600 3.040910 1.480159
v -0.571452 0.270524 1.401333
v -0.571452 3.040910 1.401333
v -0.810934 0.270524 1.273328
v -0.810934 3.040910 1.273328
v -1.020841 0.270524 1.101061
v -1.020841 3.040910 1.101061
v -1.193108 0.270524 0.891154
v -1.193108 3.040910 0.891154
v -1.321113 0.270524 0.651672
v -1.321113 3.040910 0.651672
v -1.399938 0.270524 0.391819
v -1.399938 3.040910 0.391819
v -1.426554 0.270524 0.121581
v -1.426554 3.040910 0.121581
v -1.399938 0.270524 -0.148657
v -1.399938 3.040910 -0.148657
v -1.321112 0.270524 -0.408509
v -1.321112 3.040910 -0.408509
v -1.193106 0.270524 -0.647991
v -1.193106 3.040910 -0.647991
v -1.020839 0.270524 -0.857898
v -1.020839 3.040910 -0.857898
v -0.810932 0.270524 -1.030165
v -0.810932 3.040910 -1.030165
v -0.571450 0.270524 -1.158170
v -0.571450 3.040910 -1.158170
v -0.311597 0.270524 -1.236995
v -0.311597 3.040910 -1.236995
v -0.041361 0.270524 -1.222055
v -0.041361 3.040910 -1.222055
v 0.220770 0.270524 -1.196238
v 0.220770 3.040910 -1.196238
v 0.472827 0.270524 -1.119778
v 0.472827 3.040910 -1.119778
v 0.705124 0.270524 -0.995612
v 0.705124 3.040910 -0.995612
v 0.908735 0.270524 -0.828514
v 0.908735 3.040910 -0.828514
v 1.075833 0.270524 -0.624903
v 1.075833 3.040910 -0.624903
v 1.199998 0.270524 -0.392606
v 1.199998 3.040910 -0.392606
v 1.276459 0.270524 -0.140549
v 1.276459 3.040910 -0.140549
v 1.302276 0.270524 0.121582
v 1.302276 3.040910 0.121582
v 1.276459 0.270524 0.383713
v 1.276459 3.040910 0.383713
v 1.199998 0.270524 0.635770
v 1.199998 3.040910 0.635770
v 1.075833 0.270524 0.868068
v 1.075833 3.040910 0.868068
v 0.908735 0.270524 1.071678
v 0.908735 3.040910 1.071678
v 0.705124 0.270524 1.238777
v 0.705124 3.040910 1.238777
v 0.472827 0.270524 1.362942
v 0.472827 3.040910 1.362942
v 0.220770 0.270524 1.439402
v 0.220770 3.040910 1.439402
v -0.041362 0.270524 1.465221
v -0.041362 3.040910 1.465221
v -0.303493 0.270524 1.439402
v -0.303493 3.040910 1.439402
v -0.555550 0.270524 1.362942
v -0.555550 3.040910 1.362942
v -0.787847 0.270524 1.238776
v -0.787847 3.040910 1.238776
v -0.991458 0.270524 1.071678
v -0.991458 3.040910 1.071678
v -1.158556 0.270524 0.868067
v -1.158556 3.040910 0.868067
v -1.282722 0.270524 0.635769
v -1.282722 3.040910 0.635769
v -1.359182 0.270524 0.383712
v -1.359182 3.040910 0.383712
v -1.385000 0.270524 0.121581
v -1.385000 3.040910 0.121581
v -1.359181 0.270524 -0.140550
v -1.359181 3.040910 -0.140550
v -1.282721 0.270524 -0.392607
v -1.282721 3.040910 -0.392607
v -1.158555 0.270524 -0.624904
v -1.158555 3.040910 -0.624904
v -0.991456 0.270524 -0.828515
v -0.991456 3.040910 -0.828515
v -0.787845 0.270524 -0.995613
v -0.787845 3.040910 -0.995613
v -0.555548 0.270524 -1.119778
v -0.555548 3.040910 -1.119778
v -0.303491 0.270524 -1.196238
v -0.303491 3.040910 -1.196238
vn 0.098000 0.000000 -0.995200
vn 0.290300 -0.000000 -0.956900
vn 0.471400 0.000000 -0.881900
vn 0.634400 -0.000000 -0.773000
vn 0.773000 -0.000000 -0.634400
vn 0.881900 -0.000000 -0.471400
vn 0.956900 -0.000000 -0.290300
vn 0.995200 -0.000000 -0.098000
vn 0.995200 -0.000000 0.098000
vn 0.956900 -0.000000 0.290300
vn 0.881900 0.000000 0.471400
vn 0.773000 -0.000000 0.634400
vn 0.634400 -0.000000 0.773000
vn 0.471400 -0.000000 0.881900
vn 0.290300 -0.000000 0.956900
vn 0.098000 -0.000000 0.995200
vn -0.098000 0.000000 0.995200
vn -0.290300 -0.000000 0.956900
vn -0.471400 0.000000 0.881900
vn -0.634400 -0.000000 0.773000
vn -0.773000 0.000000 0.634400
vn -0.881900 0.000000 0.471400
vn -0.956900 -0.000000 0.290300
vn -0.995200 -0.000000 0.098000
vn -0.995200 -0.000000 -0.098000
vn -0.956900 0.000000 -0.290300
vn -0.881900 -0.000000 -0.471400
vn -0.773000 -0.000000 -0.634400
vn -0.634400 -0.000000 -0.773000
vn -0.471400 -0.000000 -0.881900
vn -0.290300 0.000000 -0.956900
vn -0.098000 -0.000000 -0.995200
vn 0.000000 -1.000000 -0.000000
vn 0.000000 1.000000 -0.000000
usemtl None
s off
f 1//1 2//1 4//1 3//1
f 3//2 4//2 6//2 5//2
f 5//3 6//3 8//3 7//3
f 7//4 8//4 10//4 9//4
f 9//5 10//5 12//5 11//5
f 11//6 12//6 14//6 13//6
f 13//7 14//7 16//7 15//7
f 15//8 16//8 18//8 17//8
f 17//9 18//9 20//9 19//9
f 19//10 20//10 22//10 21//10
f 21//11 22//11 24//11 23//11
f 23//12 24//12 26//12 25//12
f 25//13 26//13 28//13 27//13
f 27//14 28//14 30//14 29//14
f 29//15 30//15 32//15 31//15
f 31//16 32//16 34//16 33//16
f 33//17 34//17 36//17 35//17
f 35//18 36//18 38//18 37//18
f 37//19 38//19 40//19 39//19
f 39//20 40//20 42//20 41//20
f 41//21 42//21 44//21 43//21
f 43//22 44//22 46//22 45//22
f 45//23 46//23 48//23 47//23
f 47//24 48//24 50//24 49//24
f 49//25 50//25 52//25 51//25
f 51//26 52//26 54//26 53//26
f 53//27 54//27 56//27 55//27
f 55//28 56//28 58//28 57//28
f 57//29 58//29 60//29 59//29
f 59//30 60//30 62//30 61//30
f 61//31 62//31 64//31 63//31
f 63//32 64//32 2//32 1//32
f 67//17 68//17 66//17 65//17
f 69//18 70//18 68//18 67//18
f 71//19 72//19 70//19 69//19
f 73//20 74//20 72//20 71//20
f 75//21 76//21 74//21 73//21
f 77//22 78//22 76//22 75//22
f 79//23 80//23 78//23 77//23
f 81//24 82//24 80//24 79//24
f 83//25 84//25 82//25 81//25
f 85//26 86//26 84//26 83//26
f 87//27 88//27 86//27 85//27
f 89//28 90//28 88//28 87//28
f 91//29 92//29 90//29 89//29
f 93//30 94//30 92//30 91//30
f 95//31 96//31 94//31 93//31
f 97//32 98//32 96//32 95//32
f 99//1 100//1 98//1 97//1
f 101//2 102//2 100//2 99//2
f 103//3 104//3 102//3 101//3
f 105//4 106//4 104//4 103//4
f 107//5 108//5 106//5 105//5
f 109//6 110//6 108//6 107//6
f 111//7 112//7 110//7 109//7
f 113//8 114//8 112//8 111//8
f 115//9 116//9 114//9 113//9
f 117//10 118//10 116//10 115//10
f 119//11 120//11 118//11 117//11
f 121//12 122//12 120//12 119//12
f 123//13 124//13 122//13 121//13
f 125//14 126//14 124//14 123//14
f 127//15 128//15 126//15 125//15
f 65//16 66//16 128//16 127//16
f 1//33 3//33 67//33 65//33
f 4//34 2//34 66//34 68//34
f 3//33 5//33 69//33 67//33
f 6//34 4//34 68//34 70//34
f 5//33 7//33 71//33 69//33
f 8//34 6//34 70//34 72//34
f 7//33 9//33 73//33 71//33
f 10//34 8//34 72//34 74//34
f 9//33 11//33 75//33 73//33
f 12//34 10//34 74//34 76//34
f 11//33 13//33 77//33 75//33
f 14//34 12//34 76//34 78//34
f 13//33 15//33 79//33 77//33
f 16//34 14//34 78//34 80//34
f 15//33 17//33 81//33 79//33
f 18//34 16//34 80//34 82//34
f 17//33 19//33 83//33 81//33
f 20//34 18//34 82//34 84//34
f 19//33 21//33 85//33 83//33
f 22//34 20//34 84//34 86//34
f 21//33 23//33 87//33 85//33
f 24//34 22//34 86//34 88//34
f 23//33 25//33 89//33 87//33
f 26//34 24//34 88//34 90//34
f 25//33 27//33 91//33 89//33
f 28//34 26//34 90//34 92//34
f 27//33 29//33 93//33 91//33
f 30//34 28//34 92//34 94//34
f 29//33 31//33 95//33 93//33
f 32//34 30//34 94//34 96//34
f 31//33 33//33 97//33 95//33
f 34//34 32//34 96//34 98//34
f 33//33 35//33 99//33 97//33
f 36//34 34//34 98//34 100//34
f 35//33 37//33 101//33 99//33
f 38//34 36//34 100//34 102//34
f 37//33 39//33 103//33 101//33
f 40//34 38//34 102//34 104//34
f 39//33 41//33 105//33 103//33
f 42//34 40//34 104//34 106//34
f 41//33 43//33 107//33 105//33
f 44//34 42//34 106//34 108//34
f 43//33 45//33 109//33 107//33
f 46//34 44//34 108//34 110//34
f 45//33 47//33 111//33 109//33
f 48//34 46//34 110//34 112//34
f 47//33 49//33 113//33 111//33
f 50//34 48//34 112//34 114//34
f 49//33 51//33 115//33 113//33
f 52//34 50//34 114//34 116//34
f 51//33 53//33 117//33 115//33
f 54//34 52//34 116//34 118//34
f 53//33 55//33 119//33 117//33
f 56//34 54//34 118//34 120//34
f 55//33 57//33 121//33 119//33
f 58//34 56//34 120//34 122//34
f 57//33 59//33 123//33 121//33
f 60//34 58//34 122//34 124//34
f 59//33 61//33 125//33 123//33
f 62//34 60//34 124//34 126//34
f 61//33 63//33 127//33 125//33
f 64//34 62//34 126//34 128//34
f 63//33 1//33 65//33 127//33
f 2//34 64//34 128//34 66//34
