# Blender v2.75 (sub 0) OBJ File: 'h2.blend'
# www.blender.org
mtllib h2.mtl
o Cube.011_Cube.012
v -3.554667 9.535843 2.305443
v -3.554667 9.650660 2.305443
v -3.554667 9.535843 -2.994965
v -3.554667 9.650660 -2.994965
v 3.398388 9.535843 2.305443
v 3.398388 9.650660 2.305443
v 3.398388 9.535843 -2.994965
v 3.398388 9.650660 -2.994965
vn -1.000000 0.000000 0.000000
vn -0.000000 0.000000 -1.000000
vn 1.000000 -0.000000 0.000000
vn 0.000000 0.000000 1.000000
vn 0.000000 -1.000000 0.000000
vn 0.000000 1.000000 0.000000
usemtl None
s off
f 2//1 4//1 3//1 1//1
f 4//2 8//2 7//2 3//2
f 8//3 6//3 5//3 7//3
f 6//4 2//4 1//4 5//4
f 1//5 3//5 7//5 5//5
f 6//6 8//6 4//6 2//6
o Cube.010_Cube.011
v 2.820127 9.577730 -2.533108
v 2.820127 9.577730 1.843128
v -3.047239 9.577730 1.843127
v -3.047238 9.577730 -2.533109
v -2.146038 10.223856 -2.533108
v -0.676722 10.223856 -2.533108
v 0.545515 10.223856 -2.533108
v 2.014831 10.223856 -2.533108
v 2.014831 11.861777 -2.533107
v 2.820128 12.313478 -2.533107
v -0.676722 11.861777 -2.533108
v 0.545515 11.861777 -2.533108
v 2.820125 12.313478 1.843129
v 0.582472 10.393933 1.843128
v 2.092499 11.903961 1.843128
v 2.092499 10.393933 1.843128
v -3.047240 12.313478 1.843127
v -3.047238 12.313478 -2.533108
v -2.146038 11.861777 -2.533108
v -2.146038 10.223856 -2.000623
v -0.676722 10.223856 -2.000623
v -0.676722 11.861777 -2.000623
v 2.092499 10.393933 1.298669
v 0.582472 10.393933 1.298669
v 0.582472 11.903961 1.843128
v -0.801316 11.903961 1.843128
v -0.801316 10.393933 1.843128
v -2.311344 10.393933 1.843127
v -2.311344 11.903961 1.843127
v 2.092499 11.903961 1.298669
v -2.146038 11.861777 -2.000623
v 0.582472 11.903961 1.298669
v -0.801316 11.903961 1.298669
v -0.801316 10.393933 1.298669
v -2.311344 10.393933 1.298669
v -2.311344 11.903961 1.298669
v 0.545515 11.861777 -2.000623
v 0.545515 10.223856 -2.000623
v 2.014831 10.223856 -2.000623
v 2.014831 11.861777 -2.000623
vn 0.000000 -1.000000 0.000000
vn 0.000000 0.000000 -1.000000
vn 1.000000 0.000000 0.000000
vn -0.000000 -0.000000 1.000000
vn -1.000000 -0.000000 -0.000000
vn 0.000000 1.000000 0.000000
usemtl Material.001
s off
f 9//7 10//7 11//7 12//7
f 9//8 12//8 13//8 14//8 15//8 16//8 17//8 18//8
f 14//8 19//8 18//8 17//8 20//8 15//8
f 9//9 18//9 21//9 10//9
f 22//10 11//10 10//10 21//10 23//10 24//10
f 11//11 25//11 26//11 12//11
f 12//8 26//8 18//8 19//8 27//8 13//8
f 14//12 13//12 28//12 29//12
f 19//11 14//11 29//11 30//11
f 18//12 26//12 25//12 21//12
f 22//12 24//12 31//12 32//12
f 11//10 22//10 33//10 34//10 35//10 36//10
f 11//10 36//10 37//10 34//10 33//10 23//10 21//10 25//10
f 24//11 23//11 38//11 31//11
f 27//7 19//7 30//7 39//7
f 13//9 27//9 39//9 28//9
f 30//8 29//8 28//8 39//8
f 33//9 22//9 32//9 40//9
f 40//10 32//10 31//10 38//10
f 35//11 34//11 41//11 42//11
f 36//12 35//12 42//12 43//12
f 37//9 36//9 43//9 44//9
f 34//7 37//7 44//7 41//7
f 23//7 33//7 40//7 38//7
f 44//10 43//10 42//10 41//10
f 15//9 20//9 45//9 46//9
f 16//12 15//12 46//12 47//12
f 48//8 47//8 46//8 45//8
f 20//7 17//7 48//7 45//7
f 17//11 16//11 47//11 48//11
o Cube.009_Cube.010
v 2.801772 6.821980 -2.424853
v 2.801772 6.821980 1.951383
v -3.065594 6.821980 1.951383
v -3.065593 6.821980 -2.424854
v -2.164393 7.468105 -2.424853
v -0.695077 7.468105 -2.424853
v 0.527160 7.468105 -2.424853
v 1.996476 7.468105 -2.424853
v 1.996476 9.106027 -2.424852
v 2.801773 9.557728 -2.424852
v -0.695077 9.106027 -2.424853
v 0.527160 9.106027 -2.424852
v 2.801770 9.557728 1.951385
v 0.564117 7.638182 1.951383
v 2.074144 9.148211 1.951384
v 2.074144 7.638182 1.951384
v -3.065595 9.557728 1.951383
v -3.065593 9.557728 -2.424853
v -2.164393 9.106027 -2.424853
v -2.164393 7.468105 -1.892367
v -0.695077 7.468105 -1.892367
v -0.695077 9.106027 -1.892367
v 2.074144 7.638182 1.406924
v 0.564117 7.638182 1.406924
v 0.564117 9.148211 1.951384
v -0.819671 9.148211 1.951383
v -0.819671 7.638182 1.951383
v -2.329699 7.638182 1.951383
v -2.329699 9.148211 1.951383
v 2.074144 9.148211 1.406924
v -2.164393 9.106027 -1.892367
v 0.564117 9.148211 1.406924
v -0.819671 9.148211 1.406924
v -0.819671 7.638182 1.406924
v -2.329699 7.638182 1.406924
v -2.329699 9.148211 1.406924
v 0.527160 9.106027 -1.892367
v 0.527160 7.468105 -1.892367
v 1.996476 7.468105 -1.892367
v 1.996476 9.106027 -1.892367
vn 0.000000 -1.000000 -0.000000
vn 0.000000 0.000000 -1.000000
vn 1.000000 0.000000 0.000000
vn -0.000000 -0.000000 1.000000
vn -1.000000 -0.000000 -0.000000
vn 0.000000 1.000000 0.000000
usemtl Material.001
s off
f 49//13 50//13 51//13 52//13
f 49//14 52//14 53//14 54//14 55//14 56//14 57//14 58//14
f 54//14 59//14 58//14 57//14 60//14 55//14
f 49//15 58//15 61//15 50//15
f 62//16 51//16 50//16 61//16 63//16 64//16
f 51//17 65//17 66//17 52//17
f 52//14 66//14 58//14 59//14 67//14 53//14
f 54//18 53//18 68//18 69//18
f 59//17 54//17 69//17 70//17
f 58//18 66//18 65//18 61//18
f 62//18 64//18 71//18 72//18
f 51//16 62//16 73//16 74//16 75//16 76//16
f 51//16 76//16 77//16 74//16 73//16 63//16 61//16 65//16
f 64//17 63//17 78//17 71//17
f 67//13 59//13 70//13 79//13
f 53//15 67//15 79//15 68//15
f 70//14 69//14 68//14 79//14
f 73//15 62//15 72//15 80//15
f 80//16 72//16 71//16 78//16
f 75//17 74//17 81//17 82//17
f 76//18 75//18 82//18 83//18
f 77//15 76//15 83//15 84//15
f 74//13 77//13 84//13 81//13
f 63//13 73//13 80//13 78//13
f 84//16 83//16 82//16 81//16
f 55//15 60//15 85//15 86//15
f 56//18 55//18 86//18 87//18
f 88//14 87//14 86//14 85//14
f 60//13 57//13 88//13 85//13
f 57//17 56//17 87//17 88//17
o Cube.008_Cube.009
v -3.573022 6.780092 2.413699
v -3.573022 6.894908 2.413699
v -3.573022 6.780092 -2.886710
v -3.573022 6.894908 -2.886710
v 3.380033 6.780092 2.413699
v 3.380033 6.894908 2.413699
v 3.380033 6.780092 -2.886710
v 3.380033 6.894908 -2.886710
vn -1.000000 -0.000000 0.000000
vn -0.000000 0.000000 -1.000000
vn 1.000000 -0.000000 0.000000
vn -0.000000 0.000000 1.000000
vn 0.000000 -1.000000 0.000000
vn 0.000000 1.000000 -0.000000
usemtl None
s off
f 90//19 92//19 91//19 89//19
f 92//20 96//20 95//20 91//20
f 96//21 94//21 93//21 95//21
f 94//22 90//22 89//22 93//22
f 89//23 91//23 95//23 93//23
f 94//24 96//24 92//24 90//24
o Cube.007_Cube.008
v 2.906902 1.406687 -2.304120
v 2.906902 1.406687 2.072117
v -2.960464 1.406687 2.072116
v -2.960462 1.406687 -2.304120
v -2.070006 3.719567 -2.304119
v -2.070006 2.081645 -2.304120
v -2.960463 4.142436 -2.304120
v 2.385255 3.719567 -2.304119
v 0.915939 3.719567 -2.304119
v -0.600690 3.719567 -2.304119
v -0.600690 2.081645 -2.304120
v 0.915939 2.081645 -2.304120
v 2.906904 4.142436 -2.304118
v 2.906900 4.142436 2.072118
v 0.540974 2.226269 2.072117
v -0.830146 2.226269 2.072117
v -2.340175 2.226269 2.072116
v 2.051002 3.736296 2.072118
v 2.051002 2.226269 2.072117
v -2.960464 4.142436 2.072116
v 2.385255 3.719567 -1.826696
v 0.915939 3.719567 -1.826696
v 0.915939 2.081645 -1.826696
v 2.385255 2.081645 -2.304119
v 2.051002 2.226269 1.472595
v 0.540974 2.226269 1.472595
v 0.540974 3.736296 2.072117
v -0.830146 3.736296 2.072117
v -0.830146 2.226269 1.472595
v -2.340175 2.226269 1.472595
v -2.340175 3.736296 2.072117
v 2.051002 3.736296 1.472595
v 2.385255 2.081645 -1.826696
v 0.540974 3.736296 1.472595
v -0.830146 3.736296 1.472595
v -2.340175 3.736296 1.472595
v -2.070006 3.719567 -1.826696
v -2.070006 2.081645 -1.826696
v -0.600690 2.081645 -1.826696
v -0.600690 3.719567 -1.826696
vn 0.000000 -1.000000 -0.000000
vn 0.000000 0.000000 -1.000000
vn 1.000000 0.000000 0.000000
vn -0.000000 -0.000000 1.000000
vn -1.000000 -0.000000 -0.000000
vn 0.000000 1.000000 0.000000
usemtl Material.001
s off
f 97//25 98//25 99//25 100//25
f 101//26 102//26 100//26 103//26 104//26 105//26 106//26
f 102//26 107//26 106//26 105//26 108//26 97//26 100//26
f 97//27 109//27 110//27 98//27
f 111//28 112//28 113//28 99//28 98//28 110//28 114//28 115//28
f 99//29 116//29 103//29 100//29
f 105//25 104//25 117//25 118//25
f 108//27 105//27 118//27 119//27
f 108//26 120//26 104//26 103//26 109//26 97//26
f 109//30 103//30 116//30 110//30
f 111//30 115//30 121//30 122//30
f 123//28 114//28 110//28 124//28 112//28 111//28
f 113//30 112//30 125//30 126//30
f 127//28 124//28 110//28 116//28 99//28 113//28
f 115//29 114//29 128//29 121//29
f 104//29 120//29 129//29 117//29
f 117//26 129//26 119//26 118//26
f 120//30 108//30 119//30 129//30
f 123//27 111//27 122//27 130//27
f 130//28 122//28 121//28 128//28
f 114//25 123//25 130//25 128//25
f 112//29 124//29 131//29 125//29
f 127//27 113//27 126//27 132//27
f 132//28 126//28 125//28 131//28
f 124//25 127//25 132//25 131//25
f 102//27 101//27 133//27 134//27
f 107//30 102//30 134//30 135//30
f 136//26 135//26 134//26 133//26
f 101//25 106//25 136//25 133//25
f 106//29 107//29 135//29 136//29
o Cube.006_Cube.007
v -3.478635 4.103851 2.479369
v -3.478635 4.218667 2.479369
v -3.478635 4.103851 -2.821039
v -3.478635 4.218667 -2.821039
v 3.474420 4.103851 2.479369
v 3.474420 4.218667 2.479369
v 3.474420 4.103851 -2.821039
v 3.474420 4.218667 -2.821039
vn -1.000000 -0.000000 0.000000
vn 0.000000 0.000000 -1.000000
vn 1.000000 0.000000 0.000000
vn 0.000000 0.000000 1.000000
vn 0.000000 -1.000000 0.000000
vn 0.000000 1.000000 -0.000000
usemtl None
s off
f 138//31 140//31 139//31 137//31
f 140//32 144//32 143//32 139//32
f 144//33 142//33 141//33 143//33
f 142//34 138//34 137//34 141//34
f 137//35 139//35 143//35 141//35
f 142//36 144//36 140//36 138//36
o Cube.001_Cube.002
v -3.462685 1.329289 2.595371
v -3.462685 1.444106 2.595371
v -3.462685 1.329289 -2.705038
v -3.462685 1.444106 -2.705038
v 3.490370 1.329289 2.595371
v 3.490370 1.444106 2.595371
v 3.490370 1.329289 -2.705038
v 3.490370 1.444106 -2.705038
vn -1.000000 -0.000000 0.000000
vn -0.000000 0.000000 -1.000000
vn 1.000000 0.000000 0.000000
vn -0.000000 0.000000 1.000000
vn 0.000000 -1.000000 0.000000
vn 0.000000 1.000000 0.000000
usemtl None
s off
f 146//37 148//37 147//37 145//37
f 148//38 152//38 151//38 147//38
f 152//39 150//39 149//39 151//39
f 150//40 146//40 145//40 149//40
f 145//41 147//41 151//41 149//41
f 150//42 152//42 148//42 146//42
o Cube.002_Cube.003
v -3.478635 4.103851 2.479369
v -3.478635 4.218667 2.479369
v -3.478635 4.103851 -2.821039
v -3.478635 4.218667 -2.821039
v 3.474420 4.103851 2.479369
v 3.474420 4.218667 2.479369
v 3.474420 4.103851 -2.821039
v 3.474420 4.218667 -2.821039
vn -1.000000 -0.000000 0.000000
vn 0.000000 0.000000 -1.000000
vn 1.000000 0.000000 0.000000
vn 0.000000 0.000000 1.000000
vn 0.000000 -1.000000 0.000000
vn 0.000000 1.000000 -0.000000
usemtl None
s off
f 154//43 156//43 155//43 153//43
f 156//44 160//44 159//44 155//44
f 160//45 158//45 157//45 159//45
f 158//46 154//46 153//46 157//46
f 153//47 155//47 159//47 157//47
f 158//48 160//48 156//48 154//48
o Cube.003_Cube.004
v 2.906902 1.406687 -2.304120
v 2.906902 1.406687 2.072117
v -2.960464 1.406687 2.072116
v -2.960462 1.406687 -2.304120
v -2.070006 3.719567 -2.304119
v -2.070006 2.081645 -2.304120
v -2.960463 4.142436 -2.304120
v 2.385255 3.719567 -2.304119
v 0.915939 3.719567 -2.304119
v -0.600690 3.719567 -2.304119
v -0.600690 2.081645 -2.304120
v 0.915939 2.081645 -2.304120
v 2.906904 4.142436 -2.304118
v 2.906900 4.142436 2.072118
v 0.540974 2.226269 2.072117
v -0.830146 2.226269 2.072117
v -2.340175 2.226269 2.072116
v 2.051002 3.736296 2.072118
v 2.051002 2.226269 2.072117
v -2.960464 4.142436 2.072116
v 2.385255 3.719567 -1.826696
v 0.915939 3.719567 -1.826696
v 0.915939 2.081645 -1.826696
v 2.385255 2.081645 -2.304119
v 2.051002 2.226269 1.472595
v 0.540974 2.226269 1.472595
v 0.540974 3.736296 2.072117
v -0.830146 3.736296 2.072117
v -0.830146 2.226269 1.472595
v -2.340175 2.226269 1.472595
v -2.340175 3.736296 2.072117
v 2.051002 3.736296 1.472595
v 2.385255 2.081645 -1.826696
v 0.540974 3.736296 1.472595
v -0.830146 3.736296 1.472595
v -2.340175 3.736296 1.472595
v -2.070006 3.719567 -1.826696
v -2.070006 2.081645 -1.826696
v -0.600690 2.081645 -1.826696
v -0.600690 3.719567 -1.826696
vn 0.000000 -1.000000 -0.000000
vn 0.000000 0.000000 -1.000000
vn 1.000000 0.000000 0.000000
vn -0.000000 -0.000000 1.000000
vn -1.000000 -0.000000 -0.000000
vn 0.000000 1.000000 0.000000
usemtl Material.001
s off
f 161//49 162//49 163//49 164//49
f 165//50 166//50 164//50 167//50 168//50 169//50 170//50
f 166//50 171//50 170//50 169//50 172//50 161//50 164//50
f 161//51 173//51 174//51 162//51
f 175//52 176//52 177//52 163//52 162//52 174//52 178//52 179//52
f 163//53 180//53 167//53 164//53
f 169//49 168//49 181//49 182//49
f 172//51 169//51 182//51 183//51
f 172//50 184//50 168//50 167//50 173//50 161//50
f 173//54 167//54 180//54 174//54
f 175//54 179//54 185//54 186//54
f 187//52 178//52 174//52 188//52 176//52 175//52
f 177//54 176//54 189//54 190//54
f 191//52 188//52 174//52 180//52 163//52 177//52
f 179//53 178//53 192//53 185//53
f 168//53 184//53 193//53 181//53
f 181//50 193//50 183//50 182//50
f 184//54 172//54 183//54 193//54
f 187//51 175//51 186//51 194//51
f 194//52 186//52 185//52 192//52
f 178//49 187//49 194//49 192//49
f 176//53 188//53 195//53 189//53
f 191//51 177//51 190//51 196//51
f 196//52 190//52 189//52 195//52
f 188//49 191//49 196//49 195//49
f 166//51 165//51 197//51 198//51
f 171//54 166//54 198//54 199//54
f 200//50 199//50 198//50 197//50
f 165//49 170//49 200//49 197//49
f 170//53 171//53 199//53 200//53
o Cube.004_Cube.005
v 2.896159 4.145739 -2.359182
v 2.896159 4.145739 2.017054
v -2.971206 4.145739 2.017054
v -2.971205 4.145739 -2.359183
v -2.070006 4.791864 -2.359182
v -0.600690 4.791864 -2.359182
v 0.621547 4.791864 -2.359182
v 2.090863 4.791864 -2.359182
v 2.090863 6.429786 -2.359181
v 2.896161 6.881487 -2.359181
v -0.600690 6.429786 -2.359182
v 0.621547 6.429786 -2.359181
v 2.896157 6.881487 2.017056
v 0.658504 4.961941 2.017054
v 2.168532 6.471970 2.017055
v 2.168532 4.961941 2.017055
v -2.971207 6.881487 2.017054
v -2.971206 6.881487 -2.359182
v -2.070006 6.429786 -2.359182
v -2.070006 4.791864 -1.826696
v -0.600690 4.791864 -1.826696
v -0.600690 6.429786 -1.826696
v 2.168532 4.961941 1.472595
v 0.658504 4.961941 1.472595
v 0.658504 6.471970 2.017055
v -0.725283 6.471970 2.017054
v -0.725283 4.961941 2.017054
v -2.235312 4.961941 2.017054
v -2.235312 6.471970 2.017054
v 2.168532 6.471970 1.472595
v -2.070006 6.429786 -1.826696
v 0.658504 6.471970 1.472595
v -0.725283 6.471970 1.472595
v -0.725283 4.961941 1.472595
v -2.235312 4.961941 1.472595
v -2.235312 6.471970 1.472595
v 0.621547 6.429786 -1.826696
v 0.621547 4.791864 -1.826696
v 2.090863 4.791864 -1.826696
v 2.090863 6.429786 -1.826696
vn 0.000000 -1.000000 -0.000000
vn 0.000000 0.000000 -1.000000
vn 1.000000 0.000000 0.000000
vn -0.000000 -0.000000 1.000000
vn -1.000000 -0.000000 -0.000000
vn 0.000000 1.000000 0.000000
usemtl Material.001
s off
f 201//55 202//55 203//55 204//55
f 201//56 204//56 205//56 206//56 207//56 208//56 209//56 210//56
f 206//56 211//56 210//56 209//56 212//56 207//56
f 201//57 210//57 213//57 202//57
f 214//58 203//58 202//58 213//58 215//58 216//58
f 203//59 217//59 218//59 204//59
f 204//56 218//56 210//56 211//56 219//56 205//56
f 206//60 205//60 220//60 221//60
f 211//59 206//59 221//59 222//59
f 210//60 218//60 217//60 213//60
f 214//60 216//60 223//60 224//60
f 203//58 214//58 225//58 226//58 227//58 228//58
f 203//58 228//58 229//58 226//58 225//58 215//58 213//58 217//58
f 216//59 215//59 230//59 223//59
f 219//55 211//55 222//55 231//55
f 205//57 219//57 231//57 220//57
f 222//56 221//56 220//56 231//56
f 225//57 214//57 224//57 232//57
f 232//58 224//58 223//58 230//58
f 227//59 226//59 233//59 234//59
f 228//60 227//60 234//60 235//60
f 229//57 228//57 235//57 236//57
f 226//55 229//55 236//55 233//55
f 215//55 225//55 232//55 230//55
f 236//58 235//58 234//58 233//58
f 207//57 212//57 237//57 238//57
f 208//60 207//60 238//60 239//60
f 240//56 239//56 238//56 237//56
f 212//55 209//55 240//55 237//55
f 209//59 208//59 239//59 240//59
o Cube.005_Cube.006
v -3.345861 12.087100 2.183652
v -3.345861 13.084704 2.183652
v -3.345861 12.087100 -2.635447
v -3.345861 13.084704 -2.635447
v 2.975815 12.087100 2.183652
v 2.975815 13.084704 2.183652
v 2.975815 12.087100 -2.635447
v 2.975815 13.084704 -2.635447
vn -1.000000 -0.000000 0.000000
vn -0.000000 0.000000 -1.000000
vn 1.000000 -0.000000 0.000000
vn -0.000000 0.000000 1.000000
vn 0.000000 -1.000000 0.000000
usemtl None
s off
f 242//61 244//61 243//61 241//61
f 244//62 248//62 247//62 243//62
f 248//63 246//63 245//63 247//63
f 246//64 242//64 241//64 245//64
f 241//65 243//65 247//65 245//65
o Cube_Cube.001
v 2.942495 -1.367875 -2.188118
v 2.942495 -1.367875 2.188118
v -2.924871 -1.367875 2.188118
v -2.924870 -1.367875 -2.188119
v 2.942496 1.367875 -2.188117
v -2.924871 1.367875 -2.188118
v 2.942493 1.367875 2.188119
v 2.106474 0.770289 2.188119
v 2.106474 -0.495176 2.188118
v 0.841009 -0.495176 2.188118
v 0.561595 -0.495176 2.188118
v 0.561595 -1.191804 2.188118
v -0.402610 -1.191804 2.188118
v -0.402610 -0.495176 2.188118
v -0.827923 -0.495176 2.188118
v -2.093387 -0.495176 2.188118
v -2.924872 1.367875 2.188118
v -0.827923 0.770289 2.188118
v -0.402610 0.542306 2.188118
v 0.561595 0.542306 2.188118
v 0.841009 0.770289 2.188119
v 2.106474 0.770289 1.594877
v 2.106474 -0.495176 1.594877
v 0.841009 -0.495176 1.594877
v -0.827923 -0.495176 1.594877
v -2.093387 -0.495176 1.594877
v -2.093387 0.770289 2.188118
v -0.827923 0.770289 1.594877
v 0.841009 0.770289 1.594877
v -2.093387 0.770289 1.594877
v -0.402610 -1.191804 1.745506
v -0.402610 0.542306 1.745506
v 0.561595 0.542306 1.745506
v 0.561595 -1.191804 1.745506
vn 0.000000 -1.000000 -0.000000
vn 0.000000 0.000000 -1.000000
vn 1.000000 0.000000 0.000000
vn -0.000000 -0.000000 1.000000
vn -1.000000 -0.000000 -0.000000
vn 0.000000 1.000000 -0.000000
usemtl Material.001
s off
f 249//66 250//66 251//66 252//66
f 253//67 249//67 252//67 254//67
f 249//68 253//68 255//68 250//68
f 250//69 255//69 256//69 257//69 258//69 259//69 260//69 261//69 262//69 263//69 264//69 251//69
f 251//70 265//70 254//70 252//70
f 253//71 254//71 265//71 255//71
f 255//69 266//69 263//69 262//69 267//69 268//69 259//69 258//69 269//69 256//69
f 257//70 256//70 270//70 271//70
f 258//71 257//71 271//71 272//71
f 264//71 263//71 273//71 274//71
f 251//69 264//69 275//69 266//69 255//69 265//69
f 263//70 266//70 276//70 273//70
f 269//68 258//68 272//68 277//68
f 256//66 269//66 277//66 270//66
f 277//69 272//69 271//69 270//69
f 275//68 264//68 274//68 278//68
f 278//69 274//69 273//69 276//69
f 266//66 275//66 278//66 276//66
f 267//68 262//68 261//68 279//68 280//68
f 268//66 267//66 280//66 281//66
f 280//69 279//69 282//69 281//69
f 261//71 260//71 282//71 279//71
f 281//70 282//70 260//70 259//70 268//70
o Cylinder
v -0.192580 13.938272 0.279303
v -0.192580 12.273854 0.279303
v -0.354936 13.938272 0.263313
v -0.354936 12.273854 0.263313
v -0.511053 13.938272 0.215955
v -0.511053 12.273854 0.215955
v -0.654930 13.938272 0.139051
v -0.654930 12.273854 0.139051
v -0.781040 13.938272 0.035555
v -0.781040 12.273854 0.035555
v -0.884536 13.938272 -0.090555
v -0.884536 12.273854 -0.090555
v -0.961440 13.938272 -0.234433
v -0.961440 12.273854 -0.234433
v -1.008798 13.938272 -0.390549
v -1.008798 12.273854 -0.390549
v -1.024789 13.938272 -0.552905
v -1.024789 12.273854 -0.552905
v -1.008798 13.938272 -0.715261
v -1.008798 12.273854 -0.715261
v -0.961441 13.938272 -0.871377
v -0.961441 12.273854 -0.871377
v -0.884536 13.938272 -1.015255
v -0.884536 12.273854 -1.015255
v -0.781040 13.938272 -1.141365
v -0.781040 12.273854 -1.141365
v -0.654930 13.938272 -1.244861
v -0.654930 12.273854 -1.244861
v -0.511052 13.938272 -1.321765
v -0.511052 12.273854 -1.321765
v -0.354936 13.938272 -1.369123
v -0.354936 12.273854 -1.369123
v -0.192580 13.938272 -1.385113
v -0.192580 12.273854 -1.385113
v -0.030224 13.938272 -1.369123
v -0.030224 12.273854 -1.369123
v 0.125892 13.938272 -1.321765
v 0.125892 12.273854 -1.321765
v 0.269770 13.938272 -1.244861
v 0.269770 12.273854 -1.244861
v 0.395880 13.938272 -1.141365
v 0.395880 12.273854 -1.141365
v 0.499376 13.938272 -1.015255
v 0.499376 12.273854 -1.015255
v 0.576280 13.938272 -0.871377
v 0.576280 12.273854 -0.871377
v 0.623638 13.938272 -0.715260
v 0.623638 12.273854 -0.715260
v 0.639628 13.938272 -0.552904
v 0.639628 12.273854 -0.552904
v 0.623637 13.938272 -0.390548
v 0.623637 12.273854 -0.390548
v 0.576280 13.938272 -0.234432
v 0.576280 12.273854 -0.234432
v 0.499375 13.938272 -0.090554
v 0.499375 12.273854 -0.090554
v 0.395879 13.938272 0.035556
v 0.395879 12.273854 0.035556
v 0.269769 13.938272 0.139052
v 0.269769 12.273854 0.139052
v 0.125891 13.938272 0.215956
v 0.125891 12.273854 0.215956
v -0.030226 13.938272 0.263313
v -0.030226 12.273854 0.263313
vn 0.098000 0.000000 -0.995200
vn 0.290300 -0.000000 -0.956900
vn 0.471400 -0.000000 -0.881900
vn 0.634400 -0.000000 -0.773000
vn 0.773000 -0.000000 -0.634400
vn 0.881900 -0.000000 -0.471400
vn 0.956900 -0.000000 -0.290300
vn 0.995200 -0.000000 -0.098000
vn 0.995200 -0.000000 0.098000
vn 0.956900 0.000000 0.290300
vn 0.881900 0.000000 0.471400
vn 0.773000 -0.000000 0.634400
vn 0.634400 -0.000000 0.773000
vn 0.471400 -0.000000 0.881900
vn 0.290300 0.000000 0.956900
vn 0.098000 -0.000000 0.995200
vn -0.098000 -0.000000 0.995200
vn -0.290300 -0.000000 0.956900
vn -0.471400 -0.000000 0.881900
vn -0.634400 -0.000000 0.773000
vn -0.773000 0.000000 0.634400
vn -0.881900 -0.000000 0.471400
vn -0.956900 0.000000 0.290300
vn -0.995200 -0.000000 0.098000
vn -0.995200 -0.000000 -0.098000
vn -0.956900 0.000000 -0.290300
vn -0.881900 0.000000 -0.471400
vn -0.773000 -0.000000 -0.634400
vn -0.634400 0.000000 -0.773000
vn -0.471400 -0.000000 -0.881900
vn 0.000000 1.000000 -0.000000
vn -0.098000 0.000000 -0.995200
vn -0.290300 0.000000 -0.956900
vn 0.000000 -1.000000 0.000000
usemtl None
s off
f 283//72 284//72 286//72 285//72
f 285//73 286//73 288//73 287//73
f 287//74 288//74 290//74 289//74
f 289//75 290//75 292//75 291//75
f 291//76 292//76 294//76 293//76
f 293//77 294//77 296//77 295//77
f 295//78 296//78 298//78 297//78
f 297//79 298//79 300//79 299//79
f 299//80 300//80 302//80 301//80
f 301//81 302//81 304//81 303//81
f 303//82 304//82 306//82 305//82
f 305//83 306//83 308//83 307//83
f 307//84 308//84 310//84 309//84
f 309//85 310//85 312//85 311//85
f 311//86 312//86 314//86 313//86
f 313//87 314//87 316//87 315//87
f 315//88 316//88 318//88 317//88
f 317//89 318//89 320//89 319//89
f 319//90 320//90 322//90 321//90
f 321//91 322//91 324//91 323//91
f 323//92 324//92 326//92 325//92
f 325//93 326//93 328//93 327//93
f 327//94 328//94 330//94 329//94
f 329//95 330//95 332//95 331//95
f 331//96 332//96 334//96 333//96
f 333//97 334//97 336//97 335//97
f 335//98 336//98 338//98 337//98
f 337//99 338//99 340//99 339//99
f 339//100 340//100 342//100 341//100
f 341//101 342//101 344//101 343//101
f 286//102 284//102 346//102 344//102 342//102 340//102 338//102 336//102 334//102 332//102 330//102 328//102 326//102 324//102 322//102 320//102 318//102 316//102 314//102 312//102 310//102 308//102 306//102 304//102 302//102 300//102 298//102 296//102 294//102 292//102 290//102 288//102
f 345//103 346//103 284//103 283//103
f 343//104 344//104 346//104 345//104
f 283//105 285//105 287//105 289//105 291//105 293//105 295//105 297//105 299//105 301//105 303//105 305//105 307//105 309//105 311//105 313//105 315//105 317//105 319//105 321//105 323//105 325//105 327//105 329//105 331//105 333//105 335//105 337//105 339//105 341//105 343//105 345//105
