# Blender v2.75 (sub 0) OBJ File: 'h3.blend'
# www.blender.org
mtllib h3.mtl
o Cylinder
v -1.693561 1.318806 -1.647453
v -1.693561 3.318806 -1.647453
v -1.498471 1.318806 -1.628238
v -1.498471 3.318806 -1.628238
v -1.310878 1.318806 -1.571333
v -1.310878 3.318806 -1.571333
v -1.137991 1.318806 -1.478923
v -1.137991 3.318806 -1.478923
v -0.986454 1.318806 -1.354560
v -0.986454 3.318806 -1.354560
v -0.862091 1.318806 -1.203023
v -0.862091 3.318806 -1.203023
v -0.769681 1.318806 -1.030136
v -0.769681 3.318806 -1.030136
v -0.712776 1.318806 -0.842543
v -0.712776 3.318806 -0.842543
v -0.693561 1.318806 -0.647453
v -0.693561 3.318806 -0.647453
v -0.712776 1.318806 -0.452363
v -0.712776 3.318806 -0.452363
v -0.769681 1.318806 -0.264770
v -0.769681 3.318806 -0.264770
v -0.862091 1.318806 -0.091883
v -0.862091 3.318806 -0.091883
v -0.986454 1.318806 0.059654
v -0.986454 3.318806 0.059654
v -1.137991 1.318806 0.184017
v -1.137991 3.318806 0.184017
v -1.310878 1.318806 0.276427
v -1.310878 3.318806 0.276427
v -1.498471 1.318806 0.333332
v -1.498471 3.318806 0.333332
v -1.693561 1.318806 0.352547
v -1.693561 3.318806 0.352547
v -1.888652 1.318806 0.333332
v -1.888652 3.318806 0.333332
v -2.076245 1.318806 0.276426
v -2.076245 3.318806 0.276426
v -2.249132 1.318806 0.184016
v -2.249132 3.318806 0.184016
v -2.400668 1.318806 0.059653
v -2.400668 3.318806 0.059653
v -2.525031 1.318806 -0.091883
v -2.525031 3.318806 -0.091883
v -2.617441 1.318806 -0.264770
v -2.617441 3.318806 -0.264770
v -2.674346 1.318806 -0.452364
v -2.674346 3.318806 -0.452364
v -2.693561 1.318806 -0.647454
v -2.693561 3.318806 -0.647454
v -2.674346 1.318806 -0.842544
v -2.674346 3.318806 -0.842544
v -2.617440 1.318806 -1.030138
v -2.617440 3.318806 -1.030138
v -2.525030 1.318806 -1.203024
v -2.525030 3.318806 -1.203024
v -2.400667 1.318806 -1.354561
v -2.400667 3.318806 -1.354561
v -2.249130 1.318806 -1.478923
v -2.249130 3.318806 -1.478923
v -2.076243 1.318806 -1.571333
v -2.076243 3.318806 -1.571333
v -1.888650 1.318806 -1.628239
v -1.888650 3.318806 -1.628239
vn 0.098000 -0.000000 -0.995200
vn 0.290300 -0.000000 -0.956900
vn 0.471400 0.000000 -0.881900
vn 0.634400 -0.000000 -0.773000
vn 0.773000 0.000000 -0.634400
vn 0.881900 0.000000 -0.471400
vn 0.956900 0.000000 -0.290300
vn 0.995200 0.000000 -0.098000
vn 0.995200 -0.000000 0.098000
vn 0.956900 -0.000000 0.290300
vn 0.881900 0.000000 0.471400
vn 0.773000 -0.000000 0.634400
vn 0.634400 0.000000 0.773000
vn 0.471400 -0.000000 0.881900
vn 0.290300 -0.000000 0.956900
vn 0.098000 -0.000000 0.995200
vn -0.098000 0.000000 0.995200
vn -0.290300 0.000000 0.956900
vn -0.471400 -0.000000 0.881900
vn -0.634400 0.000000 0.773000
vn -0.773000 -0.000000 0.634400
vn -0.881900 -0.000000 0.471400
vn -0.956900 -0.000000 0.290300
vn -0.995200 -0.000000 0.098000
vn -0.995200 -0.000000 -0.098000
vn -0.956900 -0.000000 -0.290300
vn -0.881900 -0.000000 -0.471400
vn -0.773000 -0.000000 -0.634400
vn -0.634400 0.000000 -0.773000
vn -0.471400 -0.000000 -0.881900
vn 0.000000 1.000000 -0.000000
vn -0.098000 -0.000000 -0.995200
vn -0.290300 -0.000000 -0.956900
vn 0.000000 -1.000000 -0.000000
usemtl None
s off
f 1//1 2//1 4//1 3//1
f 3//2 4//2 6//2 5//2
f 5//3 6//3 8//3 7//3
f 7//4 8//4 10//4 9//4
f 9//5 10//5 12//5 11//5
f 11//6 12//6 14//6 13//6
f 13//7 14//7 16//7 15//7
f 15//8 16//8 18//8 17//8
f 17//9 18//9 20//9 19//9
f 19//10 20//10 22//10 21//10
f 21//11 22//11 24//11 23//11
f 23//12 24//12 26//12 25//12
f 25//13 26//13 28//13 27//13
f 27//14 28//14 30//14 29//14
f 29//15 30//15 32//15 31//15
f 31//16 32//16 34//16 33//16
f 33//17 34//17 36//17 35//17
f 35//18 36//18 38//18 37//18
f 37//19 38//19 40//19 39//19
f 39//20 40//20 42//20 41//20
f 41//21 42//21 44//21 43//21
f 43//22 44//22 46//22 45//22
f 45//23 46//23 48//23 47//23
f 47//24 48//24 50//24 49//24
f 49//25 50//25 52//25 51//25
f 51//26 52//26 54//26 53//26
f 53//27 54//27 56//27 55//27
f 55//28 56//28 58//28 57//28
f 57//29 58//29 60//29 59//29
f 59//30 60//30 62//30 61//30
f 4//31 2//31 64//31 62//31 60//31 58//31 56//31 54//31 52//31 50//31 48//31 46//31 44//31 42//31 40//31 38//31 36//31 34//31 32//31 30//31 28//31 26//31 24//31 22//31 20//31 18//31 16//31 14//31 12//31 10//31 8//31 6//31
f 63//32 64//32 2//32 1//32
f 61//33 62//33 64//33 63//33
f 1//34 3//34 5//34 7//34 9//34 11//34 13//34 15//34 17//34 19//34 21//34 23//34 25//34 27//34 29//34 31//34 33//34 35//34 37//34 39//34 41//34 43//34 45//34 47//34 49//34 51//34 53//34 55//34 57//34 59//34 61//34 63//34
o Cube.001_Cube.002
v -3.462685 1.329289 2.595371
v -3.462685 1.444106 2.595371
v -3.462685 1.329289 -2.705038
v -3.462685 1.444106 -2.705038
v 3.490370 1.329289 2.595371
v 3.490370 1.444106 2.595371
v 3.490370 1.329289 -2.705038
v 3.490370 1.444106 -2.705038
vn -1.000000 -0.000000 0.000000
vn -0.000000 0.000000 -1.000000
vn 1.000000 0.000000 0.000000
vn -0.000000 0.000000 1.000000
vn 0.000000 -1.000000 0.000000
vn 0.000000 1.000000 0.000000
usemtl None
s off
f 66//35 68//35 67//35 65//35
f 68//36 72//36 71//36 67//36
f 72//37 70//37 69//37 71//37
f 70//38 66//38 65//38 69//38
f 65//39 67//39 71//39 69//39
f 70//40 72//40 68//40 66//40
o Cube_Cube.001
v 2.942495 -1.367875 -2.188118
v 2.942495 -1.367875 2.188118
v -2.924871 -1.367875 2.188118
v -2.924870 -1.367875 -2.188119
v 2.942496 1.367875 -2.188117
v -2.924871 1.367875 -2.188118
v 2.942493 1.367875 2.188119
v 2.106474 0.770289 2.188119
v 2.106474 -0.495176 2.188118
v 0.841009 -0.495176 2.188118
v 0.561595 -0.495176 2.188118
v 0.561595 -1.191804 2.188118
v -0.402610 -1.191804 2.188118
v -0.402610 -0.495176 2.188118
v -0.827923 -0.495176 2.188118
v -2.093387 -0.495176 2.188118
v -2.924872 1.367875 2.188118
v -0.827923 0.770289 2.188118
v -0.402610 0.542306 2.188118
v 0.561595 0.542306 2.188118
v 0.841009 0.770289 2.188119
v 2.106474 0.770289 1.594877
v 2.106474 -0.495176 1.594877
v 0.841009 -0.495176 1.594877
v -0.827923 -0.495176 1.594877
v -2.093387 -0.495176 1.594877
v -2.093387 0.770289 2.188118
v -0.827923 0.770289 1.594877
v 0.841009 0.770289 1.594877
v -2.093387 0.770289 1.594877
v -0.402610 -1.191804 1.745506
v -0.402610 0.542306 1.745506
v 0.561595 0.542306 1.745506
v 0.561595 -1.191804 1.745506
vn 0.000000 -1.000000 -0.000000
vn 0.000000 0.000000 -1.000000
vn 1.000000 0.000000 0.000000
vn -0.000000 -0.000000 1.000000
vn -1.000000 -0.000000 -0.000000
vn 0.000000 1.000000 -0.000000
usemtl Material.001
s off
f 73//41 74//41 75//41 76//41
f 77//42 73//42 76//42 78//42
f 73//43 77//43 79//43 74//43
f 74//44 79//44 80//44 81//44 82//44 83//44 84//44 85//44 86//44 87//44 88//44 75//44
f 75//45 89//45 78//45 76//45
f 77//46 78//46 89//46 79//46
f 79//44 90//44 87//44 86//44 91//44 92//44 83//44 82//44 93//44 80//44
f 81//45 80//45 94//45 95//45
f 82//46 81//46 95//46 96//46
f 88//46 87//46 97//46 98//46
f 75//44 88//44 99//44 90//44 79//44 89//44
f 87//45 90//45 100//45 97//45
f 93//43 82//43 96//43 101//43
f 80//41 93//41 101//41 94//41
f 101//44 96//44 95//44 94//44
f 99//43 88//43 98//43 102//43
f 102//44 98//44 97//44 100//44
f 90//41 99//41 102//41 100//41
f 91//43 86//43 85//43 103//43 104//43
f 92//41 91//41 104//41 105//41
f 104//44 103//44 106//44 105//44
f 85//46 84//46 106//46 103//46
f 105//45 106//45 84//45 83//45 92//45
